<svg xmlns="http://www.w3.org/2000/svg" xmlns:xlink="http://www.w3.org/1999/xlink" viewBox="0 0 250 250" width="250" height="250" preserveAspectRatio="xMidYMid meet" style="width: 100%; height: 100%; transform: translate3d(0px, 0px, 0px); content-visibility: visible;" id="Loader"><defs><clipPath id="__lottie_element_2"><rect width="250" height="250" x="0" y="0"/></clipPath></defs><g clip-path="url(#__lottie_element_2)"><g transform="matrix(0.9281142950057983,-0.3722953498363495,0.3722953498363495,0.9281142950057983,125,125)" opacity="1" style="display: block;"><g opacity="1" transform="matrix(1,0,0,1,0,0)"><path stroke-linecap="butt" stroke-linejoin="miter" fill-opacity="0" stroke-miterlimit="4" stroke="rgb(77,77,77)" stroke-opacity="1" stroke-width="5" d=" M81.60199737548828,-66.04900360107422 C96.23100280761719,-48.00299835205078 105,-25.017000198364258 105,0 C105,57.949501037597656 57.949501037597656,105 0,105 C-57.949501037597656,105 -105,57.949501037597656 -105,0 C-105,-21.090999603271484 -98.76799774169922,-40.737998962402344 -88.0459976196289,-57.19900131225586"/></g></g><g transform="matrix(0.9281142950057983,0.3722953498363495,-0.3722953498363495,0.9281142950057983,125,125)" opacity="1" style="display: block;"><g opacity="1" transform="matrix(1,0,0,1,0,0)"><path stroke-linecap="butt" stroke-linejoin="miter" fill-opacity="0" stroke-miterlimit="4" stroke="rgb(139,219,217)" stroke-opacity="1" stroke-width="5" d=" M73.83100128173828,-59.75899887084961 C87.06600189208984,-43.430999755859375 95,-22.634000778198242 95,0 C95,52.43050003051758 52.43050003051758,95 0,95 C-52.43050003051758,95 -95,52.43050003051758 -95,0 C-95,-19.082000732421875 -89.36100006103516,-36.858001708984375 -79.66000366210938,-51.750999450683594"/></g></g><g transform="matrix(0.8592498302459717,0.5115561485290527,-0.5115561485290527,0.8592498302459717,125,125)" opacity="1" style="display: block;"><g opacity="1" transform="matrix(1,0,0,1,0,0)"><path stroke-linecap="butt" stroke-linejoin="miter" fill-opacity="0" stroke-miterlimit="4" stroke="rgb(176,215,119)" stroke-opacity="1" stroke-width="5" d=" M66.05899810791016,-53.46799850463867 C77.9010009765625,-38.85900115966797 85,-20.25200080871582 85,0 C85,46.9114990234375 46.9114990234375,85 0,85 C-46.9114990234375,85 -85,46.9114990234375 -85,0 C-85,-17.073999404907227 -79.95500183105469,-32.979000091552734 -71.2750015258789,-46.30400085449219"/></g></g><g transform="matrix(0.8592498302459717,-0.5115561485290527,0.5115561485290527,0.8592498302459717,125,125)" opacity="1" style="display: block;"><g opacity="1" transform="matrix(1,0,0,1,0,0)"><path stroke-linecap="butt" stroke-linejoin="miter" fill-opacity="0" stroke-miterlimit="4" stroke="rgb(241,106,111)" stroke-opacity="1" stroke-width="5" d=" M58.2869987487793,-47.178001403808594 C68.73699951171875,-34.28799819946289 75,-17.868999481201172 75,0 C75,41.39250183105469 41.39250183105469,75 0,75 C-41.39250183105469,75 -75,41.39250183105469 -75,0 C-75,-15.0649995803833 -70.5479965209961,-29.099000930786133 -62.88999938964844,-40.85599899291992"/></g></g><g transform="matrix(0.27217262983322144,-0.9622484445571899,0.9622484445571899,0.27217262983322144,125,125)" opacity="1" style="display: block;"><g opacity="1" transform="matrix(1,0,0,1,0,0)"><path stroke-linecap="butt" stroke-linejoin="miter" fill-opacity="0" stroke-miterlimit="4" stroke="rgb(77,77,77)" stroke-opacity="1" stroke-width="5" d=" M50.51599884033203,-40.887001037597656 C59.571998596191406,-29.715999603271484 65,-15.487000465393066 65,0 C65,35.87350082397461 35.87350082397461,65 0,65 C-35.87350082397461,65 -65,35.87350082397461 -65,0 C-65,-13.055999755859375 -61.141998291015625,-25.2189998626709 -54.50400161743164,-35.409000396728516"/></g></g><g transform="matrix(0.27217262983322144,0.9622484445571899,-0.9622484445571899,0.27217262983322144,125,125)" opacity="1" style="display: block;"><g opacity="1" transform="matrix(1,0,0,1,0,0)"><path stroke-linecap="butt" stroke-linejoin="miter" fill-opacity="0" stroke-miterlimit="4" stroke="rgb(139,219,217)" stroke-opacity="1" stroke-width="5" d=" M42.74399948120117,-34.59700012207031 C50.40700149536133,-25.143999099731445 55,-13.104000091552734 55,0 C55,30.35449981689453 30.35449981689453,55 0,55 C-30.35449981689453,55 -55,30.35449981689453 -55,0 C-55,-11.04800033569336 -51.73500061035156,-21.339000701904297 -46.11899948120117,-29.961000442504883"/></g></g><g transform="matrix(-0.7717543840408325,0.6359207034111023,-0.6359207034111023,-0.7717543840408325,125,125)" opacity="1" style="display: block;"><g opacity="1" transform="matrix(1,0,0,1,0,0)"><path stroke-linecap="butt" stroke-linejoin="miter" fill-opacity="0" stroke-miterlimit="4" stroke="rgb(176,215,119)" stroke-opacity="1" stroke-width="5" d=" M34.97200012207031,-28.30699920654297 C41.242000579833984,-20.572999954223633 45,-10.722000122070312 45,0 C45,24.835500717163086 24.835500717163086,45 0,45 C-24.835500717163086,45 -45,24.835500717163086 -45,0 C-45,-9.038999557495117 -42.32899856567383,-17.458999633789062 -37.73400115966797,-24.513999938964844"/></g></g><g transform="matrix(-0.3378206789493561,0.9412105083465576,-0.9412105083465576,-0.3378206789493561,125,125)" opacity="1" style="display: block;"><g opacity="1" transform="matrix(1,0,0,1,0,0)"><path stroke-linecap="butt" stroke-linejoin="miter" fill-opacity="0" stroke-miterlimit="4" stroke="rgb(241,106,111)" stroke-opacity="1" stroke-width="5" d=" M27.201000213623047,-22.016000747680664 C32.07699966430664,-16.000999450683594 35,-8.33899974822998 35,0 C35,19.316499710083008 19.316499710083008,35 0,35 C-19.316499710083008,35 -35,19.316499710083008 -35,0 C-35,-7.03000020980835 -32.92300033569336,-13.579000473022461 -29.349000930786133,-19.06599998474121"/></g></g><g transform="matrix(1,0,0,1,125,125)" opacity="1" style="display: block;"><g opacity="1" transform="matrix(1,0,0,1,0,0)"><path fill="rgb(241,106,111)" fill-opacity="1" d=" M0,-25 C13.797499656677246,-25 25,-13.797499656677246 25,0 C25,13.797499656677246 13.797499656677246,25 0,25 C-13.797499656677246,25 -25,13.797499656677246 -25,0 C-25,-13.797499656677246 -13.797499656677246,-25 0,-25z"/><path stroke-linecap="butt" stroke-linejoin="miter" fill-opacity="0" stroke-miterlimit="4" stroke="rgb(77,77,77)" stroke-opacity="1" stroke-width="0" d=" M0,-25 C13.797499656677246,-25 25,-13.797499656677246 25,0 C25,13.797499656677246 13.797499656677246,25 0,25 C-13.797499656677246,25 -25,13.797499656677246 -25,0 C-25,-13.797499656677246 -13.797499656677246,-25 0,-25z"/></g></g></g></svg>